#ifndef MUSIC_H
#define MUSIC_H
#include "./pitches.h"
const int doom_size = 680;
int doom_melody[doom_size] = {
  NOTE_E2, NOTE_E2, NOTE_E3, NOTE_E2, NOTE_E2, NOTE_D3, NOTE_E2, NOTE_E2, 
  NOTE_C3, NOTE_E2, NOTE_E2, NOTE_AS2, NOTE_E2, NOTE_E2, NOTE_B2, NOTE_C3,
  NOTE_E2, NOTE_E2, NOTE_E3, NOTE_E2, NOTE_E2, NOTE_D3, NOTE_E2, NOTE_E2,
  NOTE_C3, NOTE_E2, NOTE_E2, NOTE_AS2,
  
  NOTE_E2, NOTE_E2, NOTE_E3, NOTE_E2, NOTE_E2, NOTE_D3, NOTE_E2, NOTE_E2, 
  NOTE_C3, NOTE_E2, NOTE_E2, NOTE_AS2, NOTE_E2, NOTE_E2, NOTE_B2, NOTE_C3,
  NOTE_E2, NOTE_E2, NOTE_E3, NOTE_E2, NOTE_E2, NOTE_D3, NOTE_E2, NOTE_E2,
  NOTE_C3, NOTE_E2, NOTE_E2, NOTE_AS2,
  
  NOTE_E2, NOTE_E2, NOTE_E3, NOTE_E2, NOTE_E2, NOTE_D3, NOTE_E2, NOTE_E2, 
  NOTE_C3, NOTE_E2, NOTE_E2, NOTE_AS2, NOTE_E2, NOTE_E2, NOTE_B2, NOTE_C3,
  NOTE_E2, NOTE_E2, NOTE_E3, NOTE_E2, NOTE_E2, NOTE_D3, NOTE_E2, NOTE_E2,
  NOTE_C3, NOTE_E2, NOTE_E2, NOTE_AS2,
  
  NOTE_E2, NOTE_E2, NOTE_E3, NOTE_E2, NOTE_E2, NOTE_D3, NOTE_E2, NOTE_E2, 
  NOTE_C3, NOTE_E2, NOTE_E2, NOTE_AS2, NOTE_E2, NOTE_E2, NOTE_B2, NOTE_C3,
  NOTE_E2, NOTE_E2, NOTE_E3, NOTE_E2, NOTE_E2, NOTE_D3, NOTE_E2, NOTE_E2,
  NOTE_FS3, NOTE_D3, NOTE_B2, NOTE_A3, NOTE_FS3, NOTE_B2, NOTE_D3, NOTE_FS3, NOTE_A3, NOTE_FS3, NOTE_D3, NOTE_B2,
  
  NOTE_E2, NOTE_E2, NOTE_E3, NOTE_E2, NOTE_E2, NOTE_D3, NOTE_E2, NOTE_E2, 
  NOTE_C3, NOTE_E2, NOTE_E2, NOTE_AS2, NOTE_E2, NOTE_E2, NOTE_B2, NOTE_C3,
  NOTE_E2, NOTE_E2, NOTE_E3, NOTE_E2, NOTE_E2, NOTE_D3, NOTE_E2, NOTE_E2,
  NOTE_C3, NOTE_E2, NOTE_E2, NOTE_AS2,
  
  NOTE_E2, NOTE_E2, NOTE_E3, NOTE_E2, NOTE_E2, NOTE_D3, NOTE_E2, NOTE_E2, 
  NOTE_C3, NOTE_E2, NOTE_E2, NOTE_AS2, NOTE_E2, NOTE_E2, NOTE_B2, NOTE_C3,
  NOTE_E2, NOTE_E2, NOTE_E3, NOTE_E2, NOTE_E2, NOTE_D3, NOTE_E2, NOTE_E2,
  NOTE_B3, NOTE_G3, NOTE_E3, NOTE_G3, NOTE_B3, NOTE_E4, NOTE_G3, NOTE_B3, NOTE_E4, NOTE_B3, NOTE_G4, NOTE_B4,
  
  NOTE_A2, NOTE_A2, NOTE_A3, NOTE_A2, NOTE_A2, NOTE_G3, NOTE_A2, NOTE_A2, 
  NOTE_F3, NOTE_A2, NOTE_A2, NOTE_DS3, NOTE_A2, NOTE_A2, NOTE_E3, NOTE_F3,
  NOTE_A2, NOTE_A2, NOTE_A3, NOTE_A2, NOTE_A2, NOTE_G3, NOTE_A2, NOTE_A2,
  NOTE_F3, NOTE_A2, NOTE_A2, NOTE_DS3,
  
  NOTE_A2, NOTE_A2, NOTE_A3, NOTE_A2, NOTE_A2, NOTE_G3, NOTE_A2, NOTE_A2, 
  NOTE_F3, NOTE_A2, NOTE_A2, NOTE_DS3, NOTE_A2, NOTE_A2, NOTE_E3, NOTE_F3,
  NOTE_A2, NOTE_A2, NOTE_A3, NOTE_A2, NOTE_A2, NOTE_G3, NOTE_A2, NOTE_A2,
  NOTE_A3, NOTE_F3, NOTE_D3, NOTE_A3, NOTE_F3, NOTE_D3, NOTE_C4, NOTE_A3, NOTE_F3, NOTE_A3, NOTE_F3, NOTE_D3,
  
  NOTE_E2, NOTE_E2, NOTE_E3, NOTE_E2, NOTE_E2, NOTE_D3, NOTE_E2, NOTE_E2, 
  NOTE_C3, NOTE_E2, NOTE_E2, NOTE_AS2, NOTE_E2, NOTE_E2, NOTE_B2, NOTE_C3,
  NOTE_E2, NOTE_E2, NOTE_E3, NOTE_E2, NOTE_E2, NOTE_D3, NOTE_E2, NOTE_E2,
  NOTE_C3, NOTE_E2, NOTE_E2, NOTE_AS2,
  
  NOTE_E2, NOTE_E2, NOTE_E3, NOTE_E2, NOTE_E2, NOTE_D3, NOTE_E2, NOTE_E2, 
  NOTE_C3, NOTE_E2, NOTE_E2, NOTE_AS2, NOTE_E2, NOTE_E2, NOTE_B2, NOTE_C3,
  NOTE_E2, NOTE_E2, NOTE_E3, NOTE_E2, NOTE_E2, NOTE_D3, NOTE_E2, NOTE_E2,
  NOTE_C3, NOTE_E2, NOTE_E2, NOTE_AS2,
  
  NOTE_CS3, NOTE_CS3, NOTE_CS4, NOTE_CS3, NOTE_CS3, NOTE_B3, NOTE_CS3, NOTE_CS3, 
  NOTE_A3, NOTE_CS3, NOTE_CS3, NOTE_G3, NOTE_CS3, NOTE_CS3, NOTE_GS3, NOTE_A3,
  NOTE_B2, NOTE_B2, NOTE_B3, NOTE_B2, NOTE_B2, NOTE_A3, NOTE_B2, NOTE_B2,
  NOTE_G3, NOTE_B2, NOTE_B2, NOTE_F3,
  
  NOTE_E2, NOTE_E2, NOTE_E3, NOTE_E2, NOTE_E2, NOTE_D3, NOTE_E2, NOTE_E2, 
  NOTE_C3, NOTE_E2, NOTE_E2, NOTE_AS2, NOTE_E2, NOTE_E2, NOTE_B2, NOTE_C3,
  NOTE_E2, NOTE_E2, NOTE_E3, NOTE_E2, NOTE_E2, NOTE_D3, NOTE_E2, NOTE_E2,
  NOTE_B3, NOTE_G3, NOTE_E3, NOTE_G3, NOTE_B3, NOTE_E4, NOTE_G3, NOTE_B3, NOTE_E4, NOTE_B3, NOTE_G4, NOTE_B4,
  
  NOTE_E2, NOTE_E2, NOTE_E3, NOTE_E2, NOTE_E2, NOTE_D3, NOTE_E2, NOTE_E2, 
  NOTE_C3, NOTE_E2, NOTE_E2, NOTE_AS2, NOTE_E2, NOTE_E2, NOTE_B2, NOTE_C3,
  NOTE_E2, NOTE_E2, NOTE_E3, NOTE_E2, NOTE_E2, NOTE_D3, NOTE_E2, NOTE_E2,
  NOTE_C3, NOTE_E2, NOTE_E2, NOTE_AS2,
  
  NOTE_E2, NOTE_E2, NOTE_E3, NOTE_E2, NOTE_E2, NOTE_D3, NOTE_E2, NOTE_E2, 
  NOTE_C3, NOTE_E2, NOTE_E2, NOTE_AS2, NOTE_E2, NOTE_E2, NOTE_B2, NOTE_C3,
  NOTE_E2, NOTE_E2, NOTE_E3, NOTE_E2, NOTE_E2, NOTE_D3, NOTE_E2, NOTE_E2,
  NOTE_FS3, NOTE_DS3, NOTE_B2, NOTE_FS3, NOTE_DS3, NOTE_B2, NOTE_G3, NOTE_D3, NOTE_B2, NOTE_DS4, NOTE_DS3, NOTE_B2,
  
  NOTE_E2, NOTE_E2, NOTE_E3, NOTE_E2, NOTE_E2, NOTE_D3, NOTE_E2, NOTE_E2, 
  NOTE_C3, NOTE_E2, NOTE_E2, NOTE_AS2, NOTE_E2, NOTE_E2, NOTE_B2, NOTE_C3,
  NOTE_E2, NOTE_E2, NOTE_E3, NOTE_E2, NOTE_E2, NOTE_D3, NOTE_E2, NOTE_E2,
  NOTE_C3, NOTE_E2, NOTE_E2, NOTE_AS2,
  
  NOTE_E2, NOTE_E2, NOTE_E3, NOTE_E2, NOTE_E2, NOTE_D3, NOTE_E2, NOTE_E2, 
  NOTE_C3, NOTE_E2, NOTE_E2, NOTE_AS2, NOTE_E2, NOTE_E2, NOTE_B2, NOTE_C3,
  NOTE_E2, NOTE_E2, NOTE_E3, NOTE_E2, NOTE_E2, NOTE_D3, NOTE_E2, NOTE_E2,
  NOTE_E4, NOTE_B3, NOTE_G3, NOTE_G4, NOTE_E4, NOTE_G3, NOTE_B3, NOTE_D4, NOTE_E4, NOTE_G4, NOTE_E4, NOTE_G3,  
  
  NOTE_E2, NOTE_E2, NOTE_E3, NOTE_E2, NOTE_E2, NOTE_D3, NOTE_E2, NOTE_E2, 
  NOTE_C3, NOTE_E2, NOTE_E2, NOTE_AS2, NOTE_E2, NOTE_E2, NOTE_B2, NOTE_C3,
  NOTE_E2, NOTE_E2, NOTE_E3, NOTE_E2, NOTE_E2, NOTE_D3, NOTE_E2, NOTE_E2,
  NOTE_C3, NOTE_E2, NOTE_E2, NOTE_AS2,
  
  NOTE_A2, NOTE_A2, NOTE_A3, NOTE_A2, NOTE_A2, NOTE_G3, NOTE_A2, NOTE_A2, 
  NOTE_F3, NOTE_A2, NOTE_A2, NOTE_DS3, NOTE_A2, NOTE_A2, NOTE_E3, NOTE_F3,
  NOTE_A2, NOTE_A2, NOTE_A3, NOTE_A2, NOTE_A2, NOTE_G3, NOTE_A2, NOTE_A2,
  NOTE_A3, NOTE_F3, NOTE_D3, NOTE_A3, NOTE_F3, NOTE_D3, NOTE_C4, NOTE_A3, NOTE_F3, NOTE_A3, NOTE_F3, NOTE_D3,
  
  NOTE_E2, NOTE_E2, NOTE_E3, NOTE_E2, NOTE_E2, NOTE_D3, NOTE_E2, NOTE_E2, 
  NOTE_C3, NOTE_E2, NOTE_E2, NOTE_AS2, NOTE_E2, NOTE_E2, NOTE_B2, NOTE_C3,
  NOTE_E2, NOTE_E2, NOTE_E3, NOTE_E2, NOTE_E2, NOTE_D3, NOTE_E2, NOTE_E2,
  NOTE_C3, NOTE_E2, NOTE_E2, NOTE_AS2,
  
  NOTE_E2, NOTE_E2, NOTE_E3, NOTE_E2, NOTE_E2, NOTE_D3, NOTE_E2, NOTE_E2, 
  NOTE_C3, NOTE_E2, NOTE_E2, NOTE_AS2, NOTE_E2, NOTE_E2, NOTE_B2, NOTE_C3,
  NOTE_E2, NOTE_E2, NOTE_E3, NOTE_E2, NOTE_E2, NOTE_D3, NOTE_E2, NOTE_E2,
  NOTE_C3, NOTE_E2, NOTE_E2, NOTE_AS2,
  
  NOTE_E2, NOTE_E2, NOTE_E3, NOTE_E2, NOTE_E2, NOTE_D3, NOTE_E2, NOTE_E2, 
  NOTE_C3, NOTE_E2, NOTE_E2, NOTE_AS2, NOTE_E2, NOTE_E2, NOTE_B2, NOTE_C3,
  NOTE_E2, NOTE_E2, NOTE_E3, NOTE_E2, NOTE_E2, NOTE_D3, NOTE_E2, NOTE_E2,
  NOTE_C3, NOTE_E2, NOTE_E2, NOTE_AS2,
  
  NOTE_E2, NOTE_E2, NOTE_E3, NOTE_E2, NOTE_E2, NOTE_D3, NOTE_E2, NOTE_E2, 
  NOTE_C3, NOTE_E2, NOTE_E2, NOTE_AS2, NOTE_E2, NOTE_E2, NOTE_B2, NOTE_C3,
  NOTE_E2, NOTE_E2, NOTE_E3, NOTE_E2, NOTE_E2, NOTE_D3, NOTE_E2, NOTE_E2,
  NOTE_B3, NOTE_G3, NOTE_E3, NOTE_B2, NOTE_E3, NOTE_G3, NOTE_C4, NOTE_B3, NOTE_G3, NOTE_B3, NOTE_G3, NOTE_E3
};

int doom_durations[doom_size] = {
  8, 8, 8, 8, 8, 8, 8, 8, 
  8, 8, 8, 8, 8, 8, 8, 8,
  8, 8, 8, 8, 8, 8, 8, 8,
  8, 8, 8, 2,
  
  8, 8, 8, 8, 8, 8, 8, 8, 
  8, 8, 8, 8, 8, 8, 8, 8,
  8, 8, 8, 8, 8, 8, 8, 8,
  8, 8, 8, 2,
  
  8, 8, 8, 8, 8, 8, 8, 8, 
  8, 8, 8, 8, 8, 8, 8, 8,
  8, 8, 8, 8, 8, 8, 8, 8,
  8, 8, 8, 2,
  
  8, 8, 8, 8, 8, 8, 8, 8, 
  8, 8, 8, 8, 8, 8, 8, 8,
  8, 8, 8, 8, 8, 8, 8, 8,
  16, 16, 16, 16, 16, 16, 16, 16, 16, 16, 16, 16,
  
  8, 8, 8, 8, 8, 8, 8, 8, 
  8, 8, 8, 8, 8, 8, 8, 8,
  8, 8, 8, 8, 8, 8, 8, 8,
  8, 8, 8, 2,
  
  8, 8, 8, 8, 8, 8, 8, 8, 
  8, 8, 8, 8, 8, 8, 8, 8,
  8, 8, 8, 8, 8, 8, 8, 8,
  16, 16, 16, 16, 16, 16, 16, 16, 16, 16, 16, 16,
  
  8, 8, 8, 8, 8, 8, 8, 8, 
  8, 8, 8, 8, 8, 8, 8, 8,
  8, 8, 8, 8, 8, 8, 8, 8,
  8, 8, 8, 2,
  
  8, 8, 8, 8, 8, 8, 8, 8, 
  8, 8, 8, 8, 8, 8, 8, 8,
  8, 8, 8, 8, 8, 8, 8, 8,
  16, 16, 16, 16, 16, 16, 16, 16, 16, 16, 16, 16,
  
  8, 8, 8, 8, 8, 8, 8, 8, 
  8, 8, 8, 8, 8, 8, 8, 8,
  8, 8, 8, 8, 8, 8, 8, 8,
  8, 8, 8, 2,
  
  8, 8, 8, 8, 8, 8, 8, 8, 
  8, 8, 8, 8, 8, 8, 8, 8,
  8, 8, 8, 8, 8, 8, 8, 8,
  8, 8, 8, 2,
  
  8, 8, 8, 8, 8, 8, 8, 8, 
  8, 8, 8, 8, 8, 8, 8, 8,
  8, 8, 8, 8, 8, 8, 8, 8,
  8, 8, 8, 2,
  
  8, 8, 8, 8, 8, 8, 8, 8, 
  8, 8, 8, 8, 8, 8, 8, 8,
  8, 8, 8, 8, 8, 8, 8, 8,
  16, 16, 16, 16, 16, 16, 16, 16, 16, 16, 16, 16,
  
  8, 8, 8, 8, 8, 8, 8, 8, 
  8, 8, 8, 8, 8, 8, 8, 8,
  8, 8, 8, 8, 8, 8, 8, 8,
  8, 8, 8, 2,
  
  8, 8, 8, 8, 8, 8, 8, 8, 
  8, 8, 8, 8, 8, 8, 8, 8,
  8, 8, 8, 8, 8, 8, 8, 8,
  16, 16, 16, 16, 16, 16, 16, 16, 16, 16, 16, 16,
  
  8, 8, 8, 8, 8, 8, 8, 8, 
  8, 8, 8, 8, 8, 8, 8, 8,
  8, 8, 8, 8, 8, 8, 8, 8,
  8, 8, 8, 2,
  
  8, 8, 8, 8, 8, 8, 8, 8, 
  8, 8, 8, 8, 8, 8, 8, 8,
  8, 8, 8, 8, 8, 8, 8, 8,
  16, 16, 16, 16, 16, 16, 16, 16, 16, 16, 16, 16,  
  
  8, 8, 8, 8, 8, 8, 8, 8, 
  8, 8, 8, 8, 8, 8, 8, 8,
  8, 8, 8, 8, 8, 8, 8, 8,
  8, 8, 8, 2,
  
  8, 8, 8, 8, 8, 8, 8, 8, 
  8, 8, 8, 8, 8, 8, 8, 8,
  8, 8, 8, 8, 8, 8, 8, 8,
  16, 16, 16, 16, 16, 16, 16, 16, 16, 16, 16, 16,
  
  8, 8, 8, 8, 8, 8, 8, 8, 
  8, 8, 8, 8, 8, 8, 8, 8,
  8, 8, 8, 8, 8, 8, 8, 8,
  8, 8, 8, 2,
  
  8, 8, 8, 8, 8, 8, 8, 8, 
  8, 8, 8, 8, 8, 8, 8, 8,
  8, 8, 8, 8, 8, 8, 8, 8,
  8, 8, 8, 2,
  
  8, 8, 8, 8, 8, 8, 8, 8, 
  8, 8, 8, 8, 8, 8, 8, 8,
  8, 8, 8, 8, 8, 8, 8, 8,
  8, 8, 8, 2,
  
  8, 8, 8, 8, 8, 8, 8, 8, 
  8, 8, 8, 8, 8, 8, 8, 8,
  8, 8, 8, 8, 8, 8, 8, 8,
  16, 16, 16, 16, 16, 16, 16, 16, 16, 16, 16, 16
};

const int tokyo_size = 65;
int tokyo_melody[tokyo_size] = {
  NOTE_AS4, REST, NOTE_AS4, REST, NOTE_AS4, REST, NOTE_AS4, REST,
  NOTE_AS4, NOTE_B4, NOTE_DS5,
  NOTE_AS4, REST, NOTE_AS4, REST,
  NOTE_AS4, NOTE_B4, NOTE_DS5,
  NOTE_AS4, REST, NOTE_AS4, REST,
  NOTE_AS4, NOTE_B4, NOTE_DS5,
  NOTE_AS4, REST, NOTE_AS4, REST,
  NOTE_AS4, NOTE_B4, NOTE_DS5,
  NOTE_F5, REST, NOTE_F5, REST,
  NOTE_GS5, NOTE_FS5, NOTE_F5,
  NOTE_AS4, REST, NOTE_AS4, REST,
  NOTE_GS5, NOTE_FS5, NOTE_F5,
  NOTE_AS4, REST, NOTE_AS4, REST,
  NOTE_AS4, NOTE_B4, NOTE_DS5,
  NOTE_AS4, REST, NOTE_AS4, REST,
  NOTE_AS4, NOTE_B4, NOTE_DS5,
  NOTE_AS4, REST, NOTE_AS4, REST,
  REST
};
int tokyo_durations[tokyo_size] = {
  4, 4, 4, 4, 4, 4, 4, 4,
  3, 3, 4,
  4, 4, 4, 4,
  3, 3, 4,
  4, 4, 4, 4,
  3, 3, 4,
  4, 4, 4, 4,
  3, 3, 4,
  4, 4, 4, 4,
  3, 3, 4,
  4, 4, 4, 4,
  3, 3, 4,
  4, 4, 4, 4,
  3, 3, 4,
  4, 4, 4, 4,
  3, 3, 4,
  4, 4, 4, 4,
  1
};

const int nokia_size = 13;
int nokia_melody[nokia_size] = {
  NOTE_E5, NOTE_D5, NOTE_FS4, NOTE_GS4, 
  NOTE_CS5, NOTE_B4, NOTE_D4, NOTE_E4, 
  NOTE_B4, NOTE_A4, NOTE_CS4, NOTE_E4,
  NOTE_A4
};

int nokia_durations[nokia_size] = {
  8, 8, 4, 4,
  8, 8, 4, 4,
  8, 8, 4, 4,
  2
};

const int yoshi_size = 22;
int yoshi_melody[yoshi_size] = {
  NOTE_C5, NOTE_GS4, NOTE_A4, NOTE_C5, NOTE_D5, NOTE_F5, NOTE_F5,
  NOTE_A5, NOTE_AS5, NOTE_A5, NOTE_FS5, NOTE_D5, NOTE_A5,
  NOTE_A5, NOTE_A5, NOTE_G5, NOTE_A5, NOTE_C6, NOTE_A5,
  NOTE_C5, NOTE_A5, NOTE_F5
};

int yoshi_durations[yoshi_size] = {
  6, 6, 6, 6, 6, 6, 2,
  6, 6, 6, 6, 6, 2,
  6, 6, 6, 6, 6, 3,
  6, 6, 1
};
const int rick_size = 110;
int rick_melody[rick_size] = {
  NOTE_A4, REST, NOTE_B4, REST, NOTE_C5, REST, NOTE_A4, REST,
  NOTE_D5, REST, NOTE_E5, REST, NOTE_D5, REST,

  NOTE_G4, NOTE_A4, NOTE_C5, NOTE_A4, NOTE_E5, NOTE_E5, REST,
  NOTE_D5, REST,

  NOTE_G4, NOTE_A4, NOTE_C5, NOTE_A4, NOTE_D5, NOTE_D5, REST,
  NOTE_C5, REST, NOTE_B4, NOTE_A4, REST,

  NOTE_G4, NOTE_A4, NOTE_C5, NOTE_A4, NOTE_C5, NOTE_D5, REST,
  NOTE_B4, NOTE_A4, NOTE_G4, REST, NOTE_G4, REST, NOTE_D5, REST, NOTE_C5, REST,

  NOTE_G4, NOTE_A4, NOTE_C5, NOTE_A4, NOTE_E5, NOTE_E5, REST,
  NOTE_D5, REST,

  NOTE_G4, NOTE_A4, NOTE_C5, NOTE_A4, NOTE_G5, NOTE_B4, REST,
  NOTE_C5, REST, NOTE_B4, NOTE_A4, REST,

  NOTE_G4, NOTE_A4, NOTE_C5, NOTE_A4, NOTE_C5, NOTE_D5, REST,
  NOTE_B4, NOTE_A4, NOTE_G4, REST, NOTE_G4, REST, NOTE_D5, REST, NOTE_C5, REST,

  NOTE_C5, REST, NOTE_D5, REST, NOTE_G4, REST, NOTE_D5, REST, NOTE_E5, REST,
  NOTE_G5, NOTE_F5, NOTE_E5, REST,

  NOTE_C5, REST, NOTE_D5, REST, NOTE_G4, REST
};

int rick_durations[rick_size] = {
  8, 8, 8, 8, 8, 8, 8, 4,
  8, 8, 8, 8, 2, 2,

  8, 8, 8, 8, 2, 8, 8,
  2, 8,

  8, 8, 8, 8, 2, 8, 8,
  4, 8, 8, 8, 8,

  8, 8, 8, 8, 2, 8, 8,
  2, 8, 4, 8, 8, 8, 8, 8, 1, 4,

  8, 8, 8, 8, 2, 8, 8,
  2, 8,

  8, 8, 8, 8, 2, 8, 8,
  2, 8, 8, 8, 8,

  8, 8, 8, 8, 2, 8, 8,
  4, 8, 3, 8, 8, 8, 8, 8, 1, 4,

  2, 6, 2, 6, 4, 4, 2, 6, 2, 3,
  8, 8, 8, 8,

  2, 6, 2, 6, 2, 1
};

const int dre_size = 40;
int dre_melody[dre_size] = {
  NOTE_A5, NOTE_A5, NOTE_A5, NOTE_A5, NOTE_A5, NOTE_A5, NOTE_A5, NOTE_A5, NOTE_A5, NOTE_A5, NOTE_A5,
  NOTE_G5, NOTE_G5, NOTE_G5, NOTE_G5, NOTE_G5, 
  NOTE_A5, NOTE_A5, NOTE_A5, NOTE_A5, NOTE_A5, NOTE_A5, NOTE_A5, NOTE_A5, NOTE_A5, NOTE_A5, NOTE_A5,
  NOTE_G5, NOTE_G5, NOTE_G5, NOTE_G5, NOTE_G5, 

  NOTE_A5, NOTE_A5,
  NOTE_G5, NOTE_G5, 
  NOTE_A5, NOTE_A5,
  NOTE_G5, NOTE_G5, 
};

int dre_durations[dre_size] = {
  5, 5, 5, 5, 5, 5, 5, 5, 5, 5, 5,
  5, 5, 5, 5, 5,
  5, 5, 5, 5, 5, 5, 5, 5, 5, 5, 5, 
  5, 5, 5, 5, 5,

  1, 2, 
  1, 2, 
  1, 2, 
  1, 2, 
};

const int prayer_size = 38;
int prayer_melody[prayer_size] = {
  NOTE_B3, NOTE_D4, NOTE_E4, NOTE_E4,
  NOTE_B3, NOTE_D4, NOTE_E4, NOTE_E4,
  NOTE_B3, NOTE_D4, NOTE_E4, NOTE_E4,

  NOTE_B3, NOTE_D4, NOTE_G4, NOTE_G4, NOTE_G4, NOTE_FS4, NOTE_E4, NOTE_D4, NOTE_E4, NOTE_E4, NOTE_D4,
  NOTE_B3,

  NOTE_G4, NOTE_G4, NOTE_FS4, NOTE_E4, NOTE_E4, NOTE_FS4,
  NOTE_G4, NOTE_FS4, NOTE_E4, NOTE_E4, NOTE_B3,
  NOTE_A3, NOTE_G3,

  REST
};

int prayer_durations[prayer_size] = {
  8, 8, 8, 8,
  8, 8, 8, 8,
  8, 8, 8, 8,

  8, 8, 8, 8, 8, 8, 8, 8, 8, 16, 16,
  1,

  8, 8, 8, 8, 4, 8,
  4, 4, 8, 4, 4,
  8, 1,

  1
};

const int tetris_size = 99;
int tetris_melody[tetris_size] = {
  NOTE_E5, NOTE_B4, NOTE_C5, NOTE_D5, NOTE_C5, NOTE_B4,
  NOTE_A4, NOTE_A4, NOTE_C5, NOTE_E5, NOTE_D5, NOTE_C5,
  NOTE_B4, NOTE_C5, NOTE_D5, NOTE_E5,
  NOTE_C5, NOTE_A4, NOTE_A4, NOTE_A4, NOTE_B4, NOTE_C5,
  
  NOTE_D5, NOTE_F5, NOTE_A5, NOTE_G5, NOTE_F5,
  NOTE_E5, NOTE_C5, NOTE_E5, NOTE_D5, NOTE_C5,
  NOTE_B4, NOTE_B4, NOTE_C5, NOTE_D5, NOTE_E5,
  NOTE_C5, NOTE_A4, NOTE_A4, REST, 
  
  NOTE_E5, NOTE_B4, NOTE_C5, NOTE_D5, NOTE_C5, NOTE_B4,
  NOTE_A4, NOTE_A4, NOTE_C5, NOTE_E5, NOTE_D5, NOTE_C5,
  NOTE_B4, NOTE_C5, NOTE_D5, NOTE_E5,
  NOTE_C5, NOTE_A4, NOTE_A4, NOTE_A4, NOTE_B4, NOTE_C5,
  
  NOTE_D5, NOTE_F5, NOTE_A5, NOTE_G5, NOTE_F5,
  NOTE_E5, NOTE_C5, NOTE_E5, NOTE_D5, NOTE_C5,
  NOTE_B4, NOTE_B4, NOTE_C5, NOTE_D5, NOTE_E5,
  NOTE_C5, NOTE_A4, NOTE_A4, REST, 
  
  NOTE_E5, NOTE_C5,
  NOTE_D5, NOTE_B4,
  NOTE_C5, NOTE_A4,
  NOTE_GS4, NOTE_B4, REST, 
  NOTE_E5, NOTE_C5,
  NOTE_D5, NOTE_B4,
  NOTE_C5, NOTE_E5, NOTE_A5,
  NOTE_GS5
};

int tetris_durations[tetris_size] = {
  4, 8, 8, 4, 8, 8,
  4, 8, 8, 4, 8, 8,
  4, 8, 4, 4,
  4, 4, 8, 4, 8, 8,
  
  4, 8, 4, 8, 8,
  4, 8, 4, 8, 8,
  4, 8, 8, 4, 4,
  4, 4, 4, 4,
  
  4, 8, 8, 4, 8, 8,
  4, 8, 8, 4, 8, 8,
  4, 8, 4, 4,
  4, 4, 8, 4, 8, 8,
  
  4, 8, 4, 8, 8,
  4, 8, 4, 8, 8,
  4, 8, 8, 4, 4,
  4, 4, 4, 4,
  
  2, 2,
  2, 2,
  2, 2,
  2, 4, 8, 
  2, 2,
  2, 2,
  4, 4, 2,
  2
};
const int mario_size = 321;
int mario_melody[mario_size] = {
  NOTE_E5, NOTE_E5, REST, NOTE_E5, REST, NOTE_C5, NOTE_E5,
  NOTE_G5, REST, NOTE_G4, REST, 
  NOTE_C5, NOTE_G4, REST, NOTE_E4,
  NOTE_A4, NOTE_B4, NOTE_AS4, NOTE_A4,
  NOTE_G4, NOTE_E5, NOTE_G5, NOTE_A5, NOTE_F5, NOTE_G5,
  REST, NOTE_E5,NOTE_C5, NOTE_D5, NOTE_B4,
  NOTE_C5, NOTE_G4, REST, NOTE_E4,
  NOTE_A4, NOTE_B4, NOTE_AS4, NOTE_A4,
  NOTE_G4, NOTE_E5, NOTE_G5, NOTE_A5, NOTE_F5, NOTE_G5,
  REST, NOTE_E5,NOTE_C5, NOTE_D5, NOTE_B4,
  
  REST, NOTE_G5, NOTE_FS5, NOTE_F5, NOTE_DS5, NOTE_E5,
  REST, NOTE_GS4, NOTE_A4, NOTE_C4, REST, NOTE_A4, NOTE_C5, NOTE_D5,
  REST, NOTE_DS5, REST, NOTE_D5,
  NOTE_C5, REST,
  
  REST, NOTE_G5, NOTE_FS5, NOTE_F5, NOTE_DS5, NOTE_E5,
  REST, NOTE_GS4, NOTE_A4, NOTE_C4, REST, NOTE_A4, NOTE_C5, NOTE_D5,
  REST, NOTE_DS5, REST, NOTE_D5,
  NOTE_C5, REST,
  
  NOTE_C5, NOTE_C5, NOTE_C5, REST, NOTE_C5, NOTE_D5,
  NOTE_E5, NOTE_C5, NOTE_A4, NOTE_G4,
  
  NOTE_C5, NOTE_C5, NOTE_C5, REST, NOTE_C5, NOTE_D5, NOTE_E5,
  REST, 
  NOTE_C5, NOTE_C5, NOTE_C5, REST, NOTE_C5, NOTE_D5,
  NOTE_E5, NOTE_C5, NOTE_A4, NOTE_G4,
  NOTE_E5, NOTE_E5, REST, NOTE_E5, REST, NOTE_C5, NOTE_E5,
  NOTE_G5, REST, NOTE_G4, REST, 
  NOTE_C5, NOTE_G4, REST, NOTE_E4,
  
  NOTE_A4, NOTE_B4, NOTE_AS4, NOTE_A4,
  NOTE_G4, NOTE_E5, NOTE_G5, NOTE_A5, NOTE_F5, NOTE_G5,
  REST, NOTE_E5, NOTE_C5, NOTE_D5, NOTE_B4,
  
  NOTE_C5, NOTE_G4, REST, NOTE_E4,
  NOTE_A4, NOTE_B4, NOTE_AS4, NOTE_A4,
  NOTE_G4, NOTE_E5, NOTE_G5, NOTE_A5, NOTE_F5, NOTE_G5,
  REST, NOTE_E5, NOTE_C5, NOTE_D5, NOTE_B4,
  
  NOTE_E5, NOTE_C5, NOTE_G4, REST, NOTE_GS4,
  NOTE_A4, NOTE_F5, NOTE_F5, NOTE_A4,
  NOTE_D5, NOTE_A5, NOTE_A5, NOTE_A5, NOTE_G5, NOTE_F5,
  
  NOTE_E5, NOTE_C5, NOTE_A4, NOTE_G4,
  NOTE_E5, NOTE_C5, NOTE_G4, REST, NOTE_GS4,
  NOTE_A4, NOTE_F5, NOTE_F5, NOTE_A4,
  NOTE_B4, NOTE_F5, NOTE_F5, NOTE_F5, NOTE_E5, NOTE_D5,
  NOTE_C5, NOTE_E4, NOTE_E4, NOTE_C4,
  
  NOTE_E5, NOTE_C5, NOTE_G4, REST, NOTE_GS4,
  NOTE_A4, NOTE_F5, NOTE_F5, NOTE_A4,
  NOTE_D5, NOTE_A5, NOTE_A5, NOTE_A5, NOTE_G5, NOTE_F5,
  
  NOTE_E5, NOTE_C5, NOTE_A4, NOTE_G4,
  NOTE_E5, NOTE_C5, NOTE_G4, REST, NOTE_GS4,
  NOTE_A4, NOTE_F5, NOTE_F5, NOTE_A4,
  NOTE_B4, NOTE_F5, NOTE_F5, NOTE_F5, NOTE_E5, NOTE_D5,
  NOTE_C5, NOTE_E4, NOTE_E4, NOTE_C4,
  NOTE_C5, NOTE_C5, NOTE_C5, REST, NOTE_C5, NOTE_D5, NOTE_E5,
  REST,
  
  NOTE_C5, NOTE_C5, NOTE_C5, REST, NOTE_C5, NOTE_D5,
  NOTE_E5, NOTE_C5, NOTE_A4, NOTE_G4,
  NOTE_E5, NOTE_E5, REST, NOTE_E5, REST, NOTE_C5, NOTE_E5,
  NOTE_G5, REST, NOTE_G4, REST, 
  NOTE_E5, NOTE_C5, NOTE_G4, REST, NOTE_GS4,
  NOTE_A4, NOTE_F5, NOTE_F5, NOTE_A4,
  NOTE_D5, NOTE_A5, NOTE_A5, NOTE_A5, NOTE_G5, NOTE_F5,
  
  NOTE_E5, NOTE_C5, NOTE_A4, NOTE_G4,
  NOTE_E5, NOTE_C5, NOTE_G4, REST, NOTE_GS4,
  NOTE_A4, NOTE_F5, NOTE_F5, NOTE_A4,
  NOTE_B4, NOTE_F5, NOTE_F5, NOTE_F5, NOTE_E5, NOTE_D5,
  NOTE_C5, NOTE_E4, NOTE_E4, NOTE_C4,
  
  // Game over sound
  NOTE_C5, NOTE_G4, NOTE_E4,
  NOTE_A4, NOTE_B4, NOTE_A4, NOTE_GS4, NOTE_AS4, NOTE_GS4,
  NOTE_G4, NOTE_D4, NOTE_E4
};

int mario_durations[mario_size] = {
  8, 8, 8, 8, 8, 8, 8,
  4, 4, 8, 4, 
  4, 8, 4, 4,
  4, 4, 8, 4,
  8, 8, 8, 4, 8, 8,
  8, 4,8, 8, 4,
  4, 8, 4, 4,
  4, 4, 8, 4,
  8, 8, 8, 4, 8, 8,
  8, 4,8, 8, 4,
  
  
  4, 8, 8, 8, 4, 8,
  8, 8, 8, 8, 8, 8, 8, 8,
  4, 4, 8, 4,
  2, 2,
  
  4, 8, 8, 8, 4, 8,
  8, 8, 8, 8, 8, 8, 8, 8,
  4, 4, 8, 4,
  2, 2,
  
  8, 4, 8, 8, 8, 4,
  8, 4, 8, 2,
  
  8, 4, 8, 8, 8, 8, 8,
  1, 
  8, 4, 8, 8, 8, 4,
  8, 4, 8, 2,
  8, 8, 8, 8, 8, 8, 4,
  4, 4, 4, 4, 
  4, 8, 4, 4,
  
  4, 4, 8, 4,
  8, 8, 8, 4, 8, 8,
  8, 4, 8, 8, 4,
  
  4, 8, 4, 4,
  4, 4, 8, 4,
  8, 8, 8, 4, 8, 8,
  8, 4, 8, 8, 4,
  
  8, 4, 8, 4, 4,
  8, 4, 8, 2,
  8, 8, 8, 8, 8, 8,
  
  8, 4, 8, 2,
  8, 4, 8, 4, 4,
  8, 4, 8, 2,
  8, 4, 8, 8, 8, 8,
  8, 4, 8, 2,
  
  8, 4, 8, 4, 4,
  8, 4, 8, 2,
  8, 8, 8, 8, 8, 8,
  
  8, 4, 8, 2,
  8, 4, 8, 4, 4,
  8, 4, 8, 2,
  8, 4, 8, 8, 8, 8,
  8, 4, 8, 2,
  8, 4, 8, 8, 8, 8, 8,
  1,
  
  8, 4, 8, 8, 8, 4,
  8, 4, 8, 2,
  8, 8, 8, 8, 8, 8, 4,
  4, 4, 4, 4, 
  8, 4, 8, 4, 4,
  8, 4, 8, 2,
  8, 8, 8, 8, 8, 8,
  
  8, 4, 8, 2,
  8, 4, 8, 4, 4,
  8, 4, 8, 2,
  8, 4, 8, 8, 8, 8,
  8, 4, 8, 2,
  
  //game over sound
  4, 4, 4,
  8, 8, 8, 8, 8, 8,
  8, 8, 2
};
#endif
